<svg width="1448" height="966" viewBox="0 0 1448 966" fill="none" xmlns="http://www.w3.org/2000/svg">
<g opacity="0.3" clip-path="url(#clip0_15_188)">
<path d="M548.973 606.077H504.503V684.125H396.682V606.077H236V526.35L403.814 280.875H504.503V524.671H548.973V606.077ZM396.682 524.671V477.675C396.682 468.863 397.102 457.113 397.521 442.007C398.36 426.901 398.78 419.348 399.199 418.509H396.262C389.969 432.776 382.837 445.784 374.866 458.372L330.395 524.671H396.682Z" fill="#FFF2D7"/>
<path d="M868.659 483.13C868.659 554.464 856.493 606.916 832.999 640.066C809.085 673.216 772.586 690 723.08 690C674.834 690 638.754 672.796 614.001 637.968C589.668 603.14 577.502 551.527 577.502 483.13C577.502 411.375 589.249 358.923 613.582 325.354C637.495 291.785 673.995 275 723.5 275C771.327 275 807.827 292.624 832.16 327.452C856.493 362.28 868.659 413.893 868.659 483.13ZM685.742 483.13C685.742 528.868 688.679 560.339 694.133 577.124C700.006 594.328 709.236 602.72 722.661 602.72C736.086 602.72 745.735 593.908 751.609 576.284C757.063 558.661 760 527.609 760 483.13C760 438.231 757.063 407.179 751.609 389.136C745.735 371.092 736.506 362.28 723.08 362.28C709.655 362.28 700.006 371.092 694.552 388.296C688.679 405.501 685.742 436.972 685.742 483.13Z" fill="#FFF2D7"/>
<path d="M1211 606.077H1166.53V684.125H1058.71V606.077H898.027V526.35L1065.84 280.875H1166.53V524.671H1211V606.077ZM1059.13 524.671V477.675C1059.13 468.863 1059.55 457.113 1059.97 442.007C1060.81 426.901 1061.23 419.348 1061.65 418.509H1058.71C1052.42 432.776 1045.28 445.784 1037.31 458.372L992.422 525.091H1059.13V524.671Z" fill="#FFF2D7"/>
</g>
<path d="M675.142 631.004H710.354V679.421L705.953 688.224H666.339C663.698 688.224 661.938 686.464 661.938 683.823V670.618C661.938 664.456 666.339 658.734 672.501 657.854L675.142 657.413V631.004Z" stroke="black" stroke-width="3" stroke-miterlimit="10"/>
<path d="M670.741 657.413H699.351C705.513 657.413 710.355 660.054 710.355 666.216V670.618" stroke="black" stroke-width="3" stroke-miterlimit="10"/>
<path d="M762.733 631.004H727.521V683.823C727.521 686.464 729.281 688.224 731.922 688.224H780.339C782.98 688.224 784.741 686.464 784.741 683.823V670.618C784.741 664.456 780.339 658.734 774.177 657.854L762.733 657.413V631.004Z" stroke="black" stroke-width="3" stroke-miterlimit="10"/>
<path d="M737.645 322.016C737.645 325.097 735.004 327.298 732.363 327.298C729.282 327.298 727.081 324.657 727.081 322.016C727.081 318.935 729.722 316.734 732.363 316.734C735.444 316.734 737.645 319.375 737.645 322.016Z" fill="black"/>
<path d="M760.532 322.016C760.532 325.097 757.891 327.298 755.25 327.298C752.169 327.298 749.969 324.657 749.969 322.016C749.969 318.935 752.609 316.734 755.25 316.734C757.891 316.734 760.532 319.375 760.532 322.016Z" fill="black"/>
<path d="M670.741 383.637V330.819C670.741 301.769 694.51 278 723.56 278C752.61 278 776.378 301.769 776.378 330.819V383.637C797.066 454.062 817.313 524.927 838 595.352C834.479 597.552 823.915 604.155 808.95 602.834C798.386 601.954 791.344 597.552 787.822 595.352C785.181 597.112 777.259 602.834 765.375 602.834C753.05 602.834 744.687 597.112 742.486 595.352C739.846 597.552 731.483 603.274 719.158 602.834C708.154 602.834 700.232 597.992 697.591 595.792C694.95 597.552 687.027 602.834 675.583 602.834C664.579 602.834 656.656 597.992 654.015 595.792C651.375 597.552 643.452 602.834 632.448 602.834C620.564 602.834 612.641 597.112 610 595.352C629.367 524.927 650.054 454.062 670.741 383.637Z" stroke="black" stroke-width="3" stroke-miterlimit="10"/>
<path d="M624.176 113.088C624.176 109.461 624.816 106.197 626.096 103.296C627.376 100.352 629.125 97.856 631.344 95.808C633.605 93.76 636.272 92.1813 639.344 91.072C642.416 89.9627 645.744 89.408 649.328 89.408C652.912 89.408 656.24 89.9627 659.312 91.072C662.384 92.1813 665.051 93.76 667.312 95.808C669.573 97.856 671.344 100.352 672.624 103.296C673.904 106.197 674.544 109.461 674.544 113.088C674.544 116.715 673.904 120.021 672.624 123.008C671.344 125.995 669.573 128.555 667.312 130.688C665.051 132.779 662.384 134.4 659.312 135.552C656.24 136.704 652.912 137.28 649.328 137.28C645.744 137.28 642.416 136.704 639.344 135.552C636.272 134.4 633.605 132.779 631.344 130.688C629.125 128.555 627.376 125.995 626.096 123.008C624.816 120.021 624.176 116.715 624.176 113.088ZM640.368 113.088C640.368 114.581 640.581 115.947 641.008 117.184C641.477 118.421 642.096 119.488 642.864 120.384C643.675 121.28 644.635 121.984 645.744 122.496C646.853 122.965 648.048 123.2 649.328 123.2C650.608 123.2 651.781 122.965 652.848 122.496C653.957 121.984 654.917 121.28 655.728 120.384C656.539 119.488 657.157 118.421 657.584 117.184C658.053 115.947 658.288 114.581 658.288 113.088C658.288 111.637 658.053 110.315 657.584 109.12C657.157 107.883 656.539 106.859 655.728 106.048C654.917 105.195 653.957 104.533 652.848 104.064C651.781 103.595 650.608 103.36 649.328 103.36C648.048 103.36 646.853 103.595 645.744 104.064C644.635 104.533 643.675 105.195 642.864 106.048C642.096 106.859 641.477 107.883 641.008 109.12C640.581 110.315 640.368 111.637 640.368 113.088ZM717.198 119.04C717.198 121.941 716.665 124.523 715.598 126.784C714.574 129.045 713.166 130.965 711.374 132.544C709.625 134.08 707.577 135.253 705.23 136.064C702.926 136.875 700.494 137.28 697.934 137.28C695.417 137.28 692.985 136.875 690.638 136.064C688.334 135.253 686.307 134.08 684.558 132.544C682.809 130.965 681.401 129.045 680.334 126.784C679.31 124.523 678.798 121.941 678.798 119.04C678.798 116.181 679.31 113.643 680.334 111.424C681.401 109.163 682.809 107.264 684.558 105.728C686.307 104.192 688.334 103.04 690.638 102.272C692.985 101.461 695.417 101.056 697.934 101.056C700.494 101.056 702.926 101.461 705.23 102.272C707.577 103.04 709.625 104.192 711.374 105.728C713.166 107.264 714.574 109.163 715.598 111.424C716.665 113.643 717.198 116.181 717.198 119.04ZM697.934 113.472C696.313 113.472 694.99 114.027 693.966 115.136C692.985 116.245 692.494 117.547 692.494 119.04C692.494 120.619 693.006 121.963 694.03 123.072C695.054 124.181 696.377 124.736 697.998 124.736C699.619 124.736 700.942 124.181 701.966 123.072C702.99 121.963 703.502 120.619 703.502 119.04C703.502 117.547 702.969 116.245 701.902 115.136C700.878 114.027 699.555 113.472 697.934 113.472ZM746.322 136.896C744.658 136.896 743.015 136.597 741.394 136C739.773 135.36 738.45 134.485 737.426 133.376H737.298V151.36H722.642V102.336H736.53V105.728H736.658C737.895 104.32 739.389 103.253 741.138 102.528C742.887 101.803 744.594 101.44 746.258 101.44C748.775 101.44 750.994 101.952 752.914 102.976C754.834 104 756.434 105.344 757.714 107.008C758.994 108.672 759.954 110.549 760.594 112.64C761.277 114.731 761.618 116.864 761.618 119.04C761.618 121.259 761.277 123.435 760.594 125.568C759.954 127.701 758.994 129.621 757.714 131.328C756.434 132.992 754.834 134.336 752.914 135.36C751.037 136.384 748.839 136.896 746.322 136.896ZM747.922 119.04C747.922 117.547 747.453 116.245 746.514 115.136C745.575 114.027 744.21 113.472 742.418 113.472C740.669 113.472 739.261 114.027 738.194 115.136C737.17 116.245 736.658 117.547 736.658 119.04C736.658 120.619 737.17 121.963 738.194 123.072C739.261 124.181 740.669 124.736 742.418 124.736C744.21 124.736 745.575 124.203 746.514 123.136C747.453 122.027 747.922 120.661 747.922 119.04ZM794.664 125.312C794.664 127.573 794.173 129.472 793.192 131.008C792.253 132.544 791.037 133.781 789.544 134.72C788.093 135.616 786.493 136.256 784.744 136.64C782.994 137.067 781.33 137.28 779.752 137.28C776.85 137.28 773.992 136.853 771.176 136C768.402 135.189 765.992 134.016 763.944 132.48L771.176 124.096C772.2 125.035 773.394 125.803 774.76 126.4C776.168 126.955 777.512 127.232 778.792 127.232C779.304 127.232 779.773 127.147 780.2 126.976C780.669 126.763 780.904 126.4 780.904 125.888C780.904 125.333 780.498 124.907 779.688 124.608C778.92 124.267 777.554 123.861 775.592 123.392C774.525 123.136 773.437 122.773 772.328 122.304C771.218 121.792 770.194 121.131 769.256 120.32C768.36 119.509 767.613 118.528 767.016 117.376C766.418 116.181 766.12 114.773 766.12 113.152C766.12 110.976 766.589 109.12 767.528 107.584C768.509 106.048 769.725 104.811 771.176 103.872C772.669 102.891 774.269 102.187 775.976 101.76C777.725 101.291 779.368 101.056 780.904 101.056C783.506 101.056 786.088 101.44 788.648 102.208C791.208 102.976 793.512 104.043 795.56 105.408L788.648 113.664C787.581 112.981 786.493 112.448 785.384 112.064C784.274 111.68 783.186 111.488 782.12 111.488C781.394 111.488 780.797 111.595 780.328 111.808C779.858 111.979 779.624 112.341 779.624 112.896C779.624 113.323 779.88 113.664 780.392 113.92C780.946 114.133 782.184 114.432 784.104 114.816C785.426 115.072 786.706 115.477 787.944 116.032C789.224 116.544 790.354 117.227 791.336 118.08C792.36 118.891 793.17 119.893 793.768 121.088C794.365 122.283 794.664 123.691 794.664 125.312ZM810.836 137.024C809.727 137.024 808.681 136.811 807.7 136.384C806.761 136 805.929 135.467 805.204 134.784C804.479 134.101 803.903 133.291 803.476 132.352C803.092 131.413 802.9 130.389 802.9 129.28C802.9 128.213 803.092 127.211 803.476 126.272C803.903 125.333 804.479 124.523 805.204 123.84C805.929 123.115 806.761 122.56 807.7 122.176C808.681 121.749 809.727 121.536 810.836 121.536C811.945 121.536 812.969 121.749 813.908 122.176C814.889 122.56 815.743 123.115 816.468 123.84C817.193 124.523 817.748 125.333 818.132 126.272C818.559 127.211 818.772 128.213 818.772 129.28C818.772 130.389 818.559 131.413 818.132 132.352C817.748 133.291 817.193 134.101 816.468 134.784C815.743 135.467 814.889 136 813.908 136.384C812.969 136.811 811.945 137.024 810.836 137.024ZM803.156 90.688H818.516V119.36H803.156V90.688Z" fill="black"/>
<defs>
<clipPath id="clip0_15_188">
<rect width="975" height="415" fill="white" transform="translate(236 275)"/>
</clipPath>
</defs>
</svg>
